<svg xmlns="http://www.w3.org/2000/svg" width="16" height="16" viewBox="0 0 16 16">
  <path d="M8 1a7 7 0 1 0 0 14A7 7 0 0 0 8 1zm0 1.5c.44.57 1.1 1.7 1.48 3.5H6.52C6.9 4.2 7.56 3.07 8 2.5zm-2.2.56C5.26 4 4.65 5.3 4.3 6H3.06A5.5 5.5 0 0 1 5.8 3.06zM10.2 3.06A5.5 5.5 0 0 1 12.94 6H11.7c-.35-.7-.96-2-1.5-2.94zM2.6 7.5h1.56c-.07.49-.11.99-.11 1.5s.04.97.1 1.5H2.6A5.47 5.47 0 0 1 2.5 9c0-.52.04-1.02.1-1.5zm2.08 0h2.82c-.06.48-.1.98-.1 1.5s.04.98.1 1.5H4.68A8.8 8.8 0 0 1 4.56 9c0-.52.05-1.02.12-1.5zm4.32 0h2.82c.07.48.12.98.12 1.5s-.05 1.02-.12 1.5H9c.06-.52.1-1.02.1-1.5S9.06 7.98 9 7.5zm4.34 0h1.56c.06.48.1.98.1 1.5s-.04 1.02-.1 1.5h-1.56c.06-.53.1-1.02.1-1.5s-.04-1.01-.1-1.5zm-8.28 4h1.24c.35.7.96 2 1.5 2.94A5.5 5.5 0 0 1 5.06 12zm2.77 0H8h.17c-.38 1.8-1.04 2.93-1.48 3.5-.44-.57-1.1-1.7-1.48-3.5zm3.11 0h1.24A5.5 5.5 0 0 1 10.2 14.94c-.54-.93-1.15-2.24-1.5-2.94z"/>
</svg>
